<svg width="2242pt" height="404pt" viewBox="0 0 2241.78 404" xmlns="http://www.w3.org/2000/svg"><g class="graph" transform="translate(4 400)"><path fill="#fff" stroke="transparent" d="M-4 4v-404h2241.779V4H-4z"/><g class="node"><ellipse fill="none" stroke="#2a7b9a" cx="1137.99" cy="-378" rx="31.339" ry="18"/><text text-anchor="middle" x="1137.99" y="-373.8" font-family="Times,serif" font-size="14">Main</text></g><g class="node"><ellipse fill="none" stroke="#2a7b9a" cx="1077.99" cy="-306" rx="31.901" ry="18"/><text text-anchor="middle" x="1077.99" y="-301.8" font-family="Times,serif" font-size="14">Icons</text></g><g class="edge"><path fill="none" stroke="#3d3d6a" d="M1124.375-361.662l-25.864 31.036"/><path fill="#3d3d6a" stroke="#3d3d6a" d="M1101.058-328.214l-9.09 5.441 3.712-9.923 5.378 4.482z"/></g><g class="node"><ellipse fill="none" stroke="#2a7b9a" cx="531.99" cy="-306" rx="118.104" ry="18"/><text text-anchor="middle" x="531.99" y="-301.8" font-family="Times,serif" font-size="14">GraphFile.DotLang.Encode</text></g><g class="edge"><path fill="none" stroke="#3d3d6a" d="M1106.85-374.8c-76.386 7.916-279.127 29.336-447.86 50.8a3509.213 3509.213 0 00-31.237 4.13"/><path fill="#3d3d6a" stroke="#3d3d6a" d="M628.064-316.38l-10.384-2.105 9.43-4.83.954 6.935z"/></g><g class="node"><ellipse fill="none" stroke="#2a7b9a" cx="786.99" cy="-306" rx="118.665" ry="18"/><text text-anchor="middle" x="786.99" y="-301.8" font-family="Times,serif" font-size="14">GraphFile.DotLang.Decode</text></g><g class="edge"><path fill="none" stroke="#3d3d6a" d="M1108.366-371.923L868-322.617"/><path fill="#3d3d6a" stroke="#3d3d6a" d="M868.377-319.122l-10.499-1.42 9.093-5.437 1.406 6.857z"/></g><g class="node"><ellipse fill="none" stroke="#2a7b9a" cx="1089.99" cy="-234" rx="50.378" ry="18"/><text text-anchor="middle" x="1089.99" y="-229.8" font-family="Times,serif" font-size="14">GraphFile</text></g><g class="edge"><path fill="none" stroke="#3d3d6a" d="M1135.729-359.993c-2.673 18.474-7.912 47.845-16.74 71.993-3.38 9.248-8.105 18.866-12.762 27.377"/><path fill="#3d3d6a" stroke="#3d3d6a" d="M1109.25-258.858l-7.982 6.968 1.895-10.425 6.087 3.457z"/></g><g class="node"><ellipse fill="none" stroke="#2a7b9a" cx="1743.99" cy="-162" rx="59.631" ry="18"/><text text-anchor="middle" x="1743.99" y="-157.8" font-family="Times,serif" font-size="14">Graph.Force</text></g><g class="edge"><path fill="none" stroke="#3d3d6a" d="M1168.973-374.792c57.815 6.573 179.086 23.309 210.017 50.792 38.038 33.798-.982 75.295 38 108 38.07 31.94 173.632 45.362 257.796 50.715"/><path fill="#3d3d6a" stroke="#3d3d6a" d="M1675.018-168.778l9.767 4.106-10.195 2.881.428-6.987z"/></g><g class="node"><ellipse fill="none" stroke="#2a7b9a" cx="87.99" cy="-306" rx="87.98" ry="18"/><text text-anchor="middle" x="87.99" y="-301.8" font-family="Times,serif" font-size="14">Generators.ElmDep</text></g><g class="edge"><path fill="none" stroke="#3d3d6a" d="M1106.19-377.66c-120.625 1.598-561.303 10.249-921.2 53.66-8.04.97-16.418 2.195-24.735 3.549"/><path fill="#3d3d6a" stroke="#3d3d6a" d="M160.61-316.962l-10.444-1.783 9.276-5.119 1.167 6.902z"/></g><g class="node"><ellipse fill="none" stroke="#2a7b9a" cx="2126.99" cy="-234" rx="106.578" ry="18"/><text text-anchor="middle" x="2126.99" y="-229.8" font-family="Times,serif" font-size="14">Files.UndoListWithSave</text></g><g class="edge"><path fill="none" stroke="#3d3d6a" d="M1169.51-377.737c152.732 1.484 811.77 10.373 891.48 53.737 25.092 13.65 43.172 41.425 53.994 62.53"/><path fill="#3d3d6a" stroke="#3d3d6a" d="M2118.21-262.84l1.235 10.523-7.527-7.456 6.292-3.067z"/></g><g class="node"><ellipse fill="none" stroke="#2a7b9a" cx="2021.99" cy="-306" rx="29.63" ry="18"/><text text-anchor="middle" x="2021.99" y="-301.8" font-family="Times,serif" font-size="14">Files</text></g><g class="edge"><path fill="none" stroke="#3d3d6a" d="M1169.699-377.025c132.336 4.235 640.992 22.225 798.29 53.025 6.301 1.234 12.882 3 19.195 4.95"/><path fill="#3d3d6a" stroke="#3d3d6a" d="M1988.399-322.334l8.405 6.449-10.593.2 2.188-6.65z"/></g><g class="node"><ellipse fill="none" stroke="#2a7b9a" cx="975.99" cy="-306" rx="52.187" ry="18"/><text text-anchor="middle" x="975.99" y="-301.8" font-family="Times,serif" font-size="14">Animation</text></g><g class="edge"><path fill="none" stroke="#3d3d6a" d="M1113.032-366.908l-95.361 42.383"/><path fill="#3d3d6a" stroke="#3d3d6a" d="M1018.8-321.197l-10.56.863 7.717-7.26 2.843 6.397z"/></g><g class="node"><ellipse fill="none" stroke="#2a7b9a" cx="1576.99" cy="-306" rx="150.524" ry="18"/><text text-anchor="middle" x="1576.99" y="-301.8" font-family="Times,serif" font-size="14">Algorithms.TopologicalSorting.API</text></g><g class="edge"><path fill="none" stroke="#3d3d6a" d="M1168.51-372.994l309.517 50.763"/><path fill="#3d3d6a" stroke="#3d3d6a" d="M1478.786-325.653l9.302 5.072-10.435 1.836 1.133-6.908z"/></g><g class="node"><ellipse fill="none" stroke="#2a7b9a" cx="1851.99" cy="-306" rx="106.535" ry="18"/><text text-anchor="middle" x="1851.99" y="-301.8" font-family="Times,serif" font-size="14">Algorithms.Dijkstra.API</text></g><g class="edge"><path fill="none" stroke="#3d3d6a" d="M1169.245-375.906c88.97 6.116 351.156 25.222 567.745 51.906 9.303 1.146 19.011 2.468 28.671 3.864"/><path fill="#3d3d6a" stroke="#3d3d6a" d="M1766.309-323.578l9.383 4.92-10.403 2.005 1.02-6.925z"/></g><g class="node"><ellipse fill="none" stroke="#2a7b9a" cx="294.99" cy="-306" rx="101.287" ry="18"/><text text-anchor="middle" x="294.99" y="-301.8" font-family="Times,serif" font-size="14">GraphFile.Json.Encode</text></g><g class="edge"><path fill="none" stroke="#3d3d6a" d="M367.054-293.323c12.618 1.966 25.64 3.835 37.936 5.323 230.149 27.853 505.62 44.537 624.974 50.958"/><path fill="#3d3d6a" stroke="#3d3d6a" d="M1030.198-240.535l9.8 4.028-10.173 2.963.373-6.99z"/></g><g class="node"><ellipse fill="none" stroke="#2a7b9a" cx="294.99" cy="-234" rx="86.243" ry="18"/><text text-anchor="middle" x="294.99" y="-229.8" font-family="Times,serif" font-size="14">Graph.Json.Encode</text></g><g class="edge"><path fill="none" stroke="#3d3d6a" d="M294.99-287.831v25.414"/><path fill="#3d3d6a" stroke="#3d3d6a" d="M298.49-262.413l-3.5 10-3.5-10h7z"/></g><g class="node"><ellipse fill="none" stroke="#2a7b9a" cx="1267.99" cy="-306" rx="101.848" ry="18"/><text text-anchor="middle" x="1267.99" y="-301.8" font-family="Times,serif" font-size="14">GraphFile.Json.Decode</text></g><g class="edge"><path fill="none" stroke="#3d3d6a" d="M1227.153-289.482l-94.322 38.153"/><path fill="#3d3d6a" stroke="#3d3d6a" d="M1134.064-248.053l-10.582.506 7.958-6.995 2.624 6.49z"/></g><g class="node"><ellipse fill="none" stroke="#2a7b9a" cx="1244.99" cy="-234" rx="86.803" ry="18"/><text text-anchor="middle" x="1244.99" y="-229.8" font-family="Times,serif" font-size="14">Graph.Json.Decode</text></g><g class="edge"><path fill="none" stroke="#3d3d6a" d="M1262.186-287.831l-8.209 25.696"/><path fill="#3d3d6a" stroke="#3d3d6a" d="M1257.249-260.874l-6.377 8.46-.291-10.59 6.668 2.13z"/></g><g class="edge"><path fill="none" stroke="#3d3d6a" d="M618.041-293.612A6661.258 6661.258 0 00658.99-288c133.465 17.818 290.42 37.05 373.173 47.056"/><path fill="#3d3d6a" stroke="#3d3d6a" d="M1032.615-244.415l9.508 4.674-10.347 2.275.84-6.95z"/></g><g class="edge"><path fill="none" stroke="#3d3d6a" d="M850.878-290.819l187.198 44.483"/><path fill="#3d3d6a" stroke="#3d3d6a" d="M1039.132-249.683l8.92 5.718-10.539 1.093 1.619-6.81z"/></g><g class="node"><ellipse fill="none" stroke="#2a7b9a" cx="957.99" cy="-162" rx="64.872" ry="18"/><text text-anchor="middle" x="957.99" y="-157.8" font-family="Times,serif" font-size="14">Graph.Layout</text></g><g class="edge"><path fill="none" stroke="#3d3d6a" d="M1062.318-218.906l-65.834 35.91"/><path fill="#3d3d6a" stroke="#3d3d6a" d="M997.913-179.79l-10.455 1.716 7.103-7.86 3.352 6.145z"/></g><g class="node"><ellipse fill="none" stroke="#2a7b9a" cx="1120.99" cy="-162" rx="79.876" ry="18"/><text text-anchor="middle" x="1120.99" y="-157.8" font-family="Times,serif" font-size="14">Graph.Generators</text></g><g class="edge"><path fill="none" stroke="#3d3d6a" d="M1097.653-216.202l11.53 26.78"/><path fill="#3d3d6a" stroke="#3d3d6a" d="M1112.46-190.662l.74 10.569-7.17-7.8 6.43-2.77z"/></g><g class="edge"><path fill="none" stroke="#3d3d6a" d="M1126.517-221.582c7.371 2.143 15.116 4.142 22.473 5.582 187.548 36.714 413.34 48.552 525.176 52.304"/><path fill="#3d3d6a" stroke="#3d3d6a" d="M1674.421-167.19l9.882 3.822-10.109 3.175.227-6.997z"/></g><g class="node"><ellipse fill="none" stroke="#2a7b9a" cx="1359.99" cy="-90" rx="58.487" ry="18"/><text text-anchor="middle" x="1359.99" y="-85.8" font-family="Times,serif" font-size="14">Graph.Extra</text></g><g class="edge"><path fill="none" stroke="#3d3d6a" d="M1123.082-220.352c24.38 10.353 58.158 25.325 86.908 40.352 40.855 21.355 86 49.029 115.982 68.02"/><path fill="#3d3d6a" stroke="#3d3d6a" d="M1328.21-114.705l6.558 8.322-10.316-2.416 3.759-5.906z"/></g><g class="edge"><path fill="none" stroke="#3d3d6a" d="M1006.037-149.756c8.616 2.037 17.531 4.041 25.953 5.756 91.388 18.61 198.103 35.243 264.376 44.98"/><path fill="#3d3d6a" stroke="#3d3d6a" d="M1297.258-102.428l9.389 4.91-10.401 2.017 1.012-6.927z"/></g><g class="node"><ellipse fill="none" stroke="#2a7b9a" cx="1743.99" cy="-18" rx="100.665" ry="18"/><text text-anchor="middle" x="1743.99" y="-13.8" font-family="Times,serif" font-size="14">Graph.Force.QuadTree</text></g><g class="node"><ellipse fill="none" stroke="#2a7b9a" cx="1743.99" cy="-90" rx="105.366" ry="18"/><text text-anchor="middle" x="1743.99" y="-85.8" font-family="Times,serif" font-size="14">Graph.Force.ManyBody</text></g><g class="edge"><path fill="none" stroke="#3d3d6a" d="M1743.99-71.831v25.414"/><path fill="#3d3d6a" stroke="#3d3d6a" d="M1747.49-46.413l-3.5 10-3.5-10h7z"/></g><g class="node"><ellipse fill="none" stroke="#2a7b9a" cx="1947.99" cy="-90" rx="80.44" ry="18"/><text text-anchor="middle" x="1947.99" y="-85.8" font-family="Times,serif" font-size="14">Graph.Force.Link</text></g><g class="node"><ellipse fill="none" stroke="#2a7b9a" cx="1528.99" cy="-90" rx="91.454" ry="18"/><text text-anchor="middle" x="1528.99" y="-85.8" font-family="Times,serif" font-size="14">Graph.Force.Gravity</text></g><g class="edge"><path fill="none" stroke="#3d3d6a" d="M1743.99-143.831v25.414"/><path fill="#3d3d6a" stroke="#3d3d6a" d="M1747.49-118.413l-3.5 10-3.5-10h7z"/></g><g class="edge"><path fill="none" stroke="#3d3d6a" d="M1782.84-148.288l112.237 39.613"/><path fill="#3d3d6a" stroke="#3d3d6a" d="M1896.428-111.91l8.264 6.629-10.594-.028 2.33-6.601z"/></g><g class="edge"><path fill="none" stroke="#3d3d6a" d="M1704.054-148.626l-118.885 39.812"/><path fill="#3d3d6a" stroke="#3d3d6a" d="M1586.033-105.412l-10.594-.143 8.37-6.494 2.224 6.637z"/></g><g class="edge"><path fill="none" stroke="#3d3d6a" d="M1698.342-150.213c-9.345 2.22-19.14 4.408-28.352 6.213-106.28 20.82-134.897 14.3-241 36a508.566 508.566 0 00-15.43 3.428"/><path fill="#3d3d6a" stroke="#3d3d6a" d="M1414.173-101.118l-10.546-1.018 8.878-5.78 1.668 6.798z"/></g><g class="edge"><path fill="none" stroke="#3d3d6a" d="M150.43-293.237c11.456 2.006 23.339 3.867 34.56 5.237 316.592 38.669 699.016 49.955 844.692 52.98"/><path fill="#3d3d6a" stroke="#3d3d6a" d="M1029.83-238.518l9.928 3.702-10.07 3.297.142-7z"/></g><g class="edge"><path fill="none" stroke="#3d3d6a" d="M103.7-287.977c19.95 21.472 56.584 56.393 96.29 71.977 62.494 24.529 504.818 44.19 683.449 51.217"/><path fill="#3d3d6a" stroke="#3d3d6a" d="M883.683-168.276l9.856 3.888-10.13 3.107.274-6.995z"/></g><g class="edge"><path fill="none" stroke="#3d3d6a" d="M2041.74-292.457l51.092 35.035"/><path fill="#3d3d6a" stroke="#3d3d6a" d="M2095.099-260.112l6.268 8.542-10.227-2.769 3.959-5.773z"/></g><g class="edge"><path fill="none" stroke="#3d3d6a" d="M1464.29-293.983c-106.074 11.71-257.077 29.524-315.3 41.983-4.065.87-8.253 1.89-12.434 2.994"/><path fill="#3d3d6a" stroke="#3d3d6a" d="M1137.448-245.621l-10.573-.686 8.693-6.057 1.88 6.743z"/></g><g class="edge"><path fill="none" stroke="#3d3d6a" d="M1488.177-291.37c-25.647 7.984-51.889 20.318-71.187 39.37-36.822 36.353-49.915 97.868-54.53 133.722"/><path fill="#3d3d6a" stroke="#3d3d6a" d="M1365.902-117.566l-4.618 9.536-2.337-10.334 6.955.798z"/></g><g class="node"><ellipse fill="none" stroke="#2a7b9a" cx="1558.99" cy="-234" rx="132.586" ry="18"/><text text-anchor="middle" x="1558.99" y="-229.8" font-family="Times,serif" font-size="14">Algorithms.TopologicalSorting</text></g><g class="edge"><path fill="none" stroke="#3d3d6a" d="M1572.448-287.831l-6.425 25.696"/><path fill="#3d3d6a" stroke="#3d3d6a" d="M1569.414-261.266l-5.82 8.853-.97-10.55 6.79 1.697z"/></g><g class="node"><ellipse fill="none" stroke="#2a7b9a" cx="1873.99" cy="-162" rx="51.043" ry="18"/><text text-anchor="middle" x="1873.99" y="-157.8" font-family="Times,serif" font-size="14">Algorithm</text></g><g class="edge"><path fill="none" stroke="#3d3d6a" d="M1618.93-288.587c24.177 10.25 55.04 23.694 82.06 36.587 47.683 22.753 101.519 51.21 136.287 69.962"/><path fill="#3d3d6a" stroke="#3d3d6a" d="M1838.991-185.09l7.132 7.835-10.462-1.678 3.33-6.157z"/></g><g class="edge"><path fill="none" stroke="#3d3d6a" d="M1635.761-219.29c50.574 10.086 118.123 24.31 177.229 39.29a615.317 615.317 0 0112.564 3.338"/><path fill="#3d3d6a" stroke="#3d3d6a" d="M1826.721-179.97l8.67 6.09-10.575.646 1.905-6.736z"/></g><g class="edge"><path fill="none" stroke="#3d3d6a" d="M1776.965-293.215c-13.288 1.966-27.017 3.807-39.975 5.215-260.292 28.275-330.344-10.522-588 36-4.21.76-8.54 1.72-12.854 2.802"/><path fill="#3d3d6a" stroke="#3d3d6a" d="M1136.737-245.735l-10.568-.763 8.737-5.994 1.83 6.757z"/></g><g class="edge"><path fill="none" stroke="#3d3d6a" d="M1825.806-288.373c-29.485 19.363-79.243 50.599-124.816 72.373-99.465 47.523-221.938 88.85-289.724 110.315"/><path fill="#3d3d6a" stroke="#3d3d6a" d="M1412.26-102.328l-10.59-.335 8.488-6.342 2.102 6.677z"/></g><g class="node"><ellipse fill="none" stroke="#2a7b9a" cx="1874.99" cy="-234" rx="88.598" ry="18"/><text text-anchor="middle" x="1874.99" y="-229.8" font-family="Times,serif" font-size="14">Algorithms.Dijkstra</text></g><g class="edge"><path fill="none" stroke="#3d3d6a" d="M1857.794-287.831l8.208 25.696"/><path fill="#3d3d6a" stroke="#3d3d6a" d="M1869.399-263.004l-.291 10.59-6.377-8.46 6.668-2.13z"/></g><g class="edge"><path fill="none" stroke="#3d3d6a" d="M1918.077-291.78c21.19 8.02 42.392 20.482 54.913 39.78 8.708 13.423 8.167 22.242 0 36-10.815 18.219-30.178 30.684-48.928 39.004"/><path fill="#3d3d6a" stroke="#3d3d6a" d="M1925.234-173.694l-10.58.568 7.917-7.041 2.663 6.474z"/></g><g class="edge"><path fill="none" stroke="#3d3d6a" d="M1874.737-215.831l-.353 25.414"/><path fill="#3d3d6a" stroke="#3d3d6a" d="M1877.884-190.364l-3.639 9.95-3.36-10.047 7 .097z"/></g></g></svg>