<svg width="1852" height="940" viewBox="0 0 1388.86 705.48" xmlns="http://www.w3.org/2000/svg"><g class="graph" transform="translate(4 701.475)"><path fill="#fff" stroke="transparent" d="M-4 4v-705.475h1388.855V4H-4z"/><g class="node"><ellipse fill="none" stroke="#2a7b9a" cx="31.419" cy="-364" rx="31.339" ry="18"/><text text-anchor="middle" x="31.419" y="-359.8" font-family="Times,serif" font-size="14">Main</text></g><g class="node"><ellipse fill="none" stroke="#2a7b9a" cx="249.351" cy="-510" rx="31.901" ry="18"/><text text-anchor="middle" x="249.351" y="-505.8" font-family="Times,serif" font-size="14">Icons</text></g><g class="edge"><path fill="none" stroke="#3d3d6a" d="M36.224-381.819c8.153-26.59 27.353-76.197 62.615-101.181 31.567-22.366 75.968-28.017 108.362-28.736"/><path fill="#3d3d6a" stroke="#3d3d6a" d="M207.24-515.237l10.025 3.426-9.973 3.574-.053-7z"/></g><g class="node"><ellipse fill="none" stroke="#2a7b9a" cx="249.351" cy="-364" rx="118.104" ry="18"/><text text-anchor="middle" x="249.351" y="-359.8" font-family="Times,serif" font-size="14">GraphFile.DotLang.Encode</text></g><g class="edge"><path fill="none" stroke="#3d3d6a" d="M63.108-364h57.37"/><path fill="#3d3d6a" stroke="#3d3d6a" d="M120.669-367.5l10 3.5-10 3.5v-7z"/></g><g class="node"><ellipse fill="none" stroke="#2a7b9a" cx="249.351" cy="-310" rx="118.665" ry="18"/><text text-anchor="middle" x="249.351" y="-305.8" font-family="Times,serif" font-size="14">GraphFile.DotLang.Decode</text></g><g class="edge"><path fill="none" stroke="#3d3d6a" d="M55.971-352.767c12.6 5.404 28.324 11.597 42.868 15.767 17.225 4.939 35.831 9.15 53.892 12.674"/><path fill="#3d3d6a" stroke="#3d3d6a" d="M153.522-327.738l9.174 5.3-10.476 1.577 1.302-6.877z"/></g><g class="node"><ellipse fill="none" stroke="#2a7b9a" cx="568.405" cy="-376" rx="50.378" ry="18"/><text text-anchor="middle" x="568.405" y="-371.8" font-family="Times,serif" font-size="14">GraphFile</text></g><g class="edge"><path fill="none" stroke="#3d3d6a" d="M55.083-376.055c12.632-5.764 28.652-12.033 43.756-14.945 147.528-28.443 325.87-8.187 414.297 5.411"/><path fill="#3d3d6a" stroke="#3d3d6a" d="M513.873-389.016l9.336 5.008-10.421 1.908 1.085-6.916z"/></g><g class="node"><ellipse fill="none" stroke="#2a7b9a" cx="816.886" cy="-288" rx="59.631" ry="18"/><text text-anchor="middle" x="816.886" y="-283.8" font-family="Times,serif" font-size="14">Graph.Force</text></g><g class="edge"><path fill="none" stroke="#3d3d6a" d="M35.108-345.99c9.246 43.183 34.76 150.565 63.73 170.99 54.68 38.549 540.139 25.205 602.11 0 42.759-17.39 78.37-58.972 98.407-86.55"/><path fill="#3d3d6a" stroke="#3d3d6a" d="M796.672-263.818l8.63-6.146-2.914 10.186-5.716-4.04z"/></g><g class="node"><ellipse fill="none" stroke="#2a7b9a" cx="249.351" cy="-456" rx="87.98" ry="18"/><text text-anchor="middle" x="249.351" y="-451.8" font-family="Times,serif" font-size="14">Generators.ElmDep</text></g><g class="edge"><path fill="none" stroke="#3d3d6a" d="M45.237-380.338c12.567-13.774 32.35-32.91 53.602-43.662 19.344-9.786 41.548-16.584 62.855-21.304"/><path fill="#3d3d6a" stroke="#3d3d6a" d="M161.231-448.782l10.503 1.388-9.077 5.465-1.426-6.853z"/></g><g class="node"><ellipse fill="none" stroke="#2a7b9a" cx="568.405" cy="-41" rx="106.578" ry="18"/><text text-anchor="middle" x="568.405" y="-36.8" font-family="Times,serif" font-size="14">Files.UndoListWithSave</text></g><g class="edge"><path fill="none" stroke="#3d3d6a" d="M33.064-345.835C38.58-289.26 58.398-117.919 98.839-83c26.264 22.678 223.784 33.74 354.144 38.626"/><path fill="#3d3d6a" stroke="#3d3d6a" d="M453.166-47.87l9.865 3.865-10.122 3.13.257-6.995z"/></g><g class="node"><ellipse fill="none" stroke="#2a7b9a" cx="249.351" cy="-18" rx="29.63" ry="18"/><text text-anchor="middle" x="249.351" y="-13.8" font-family="Times,serif" font-size="14">Files</text></g><g class="edge"><path fill="none" stroke="#3d3d6a" d="M32.789-345.676C37.696-285.038 56.414-92.34 98.839-50c28.874 28.817 76.855 34.641 110.875 34.65"/><path fill="#3d3d6a" stroke="#3d3d6a" d="M209.73-18.851l10.057 3.336-9.942 3.663-.114-6.999z"/></g><g class="node"><ellipse fill="none" stroke="#2a7b9a" cx="249.351" cy="-110" rx="52.187" ry="18"/><text text-anchor="middle" x="249.351" y="-105.8" font-family="Times,serif" font-size="14">Animation</text></g><g class="edge"><path fill="none" stroke="#3d3d6a" d="M34.509-345.813c8.493 47.87 33.62 175.618 64.33 203.813 23.603 21.67 58.128 30.058 88.16 32.854"/><path fill="#3d3d6a" stroke="#3d3d6a" d="M187.277-112.635l9.712 4.234-10.233 2.747.52-6.98z"/></g><g class="node"><ellipse fill="none" stroke="#2a7b9a" cx="249.351" cy="-564" rx="150.524" ry="18"/><text text-anchor="middle" x="249.351" y="-559.8" font-family="Times,serif" font-size="14">Algorithms.TopologicalSorting.API</text></g><g class="edge"><path fill="none" stroke="#3d3d6a" d="M32.81-381.985C36.586-417.593 50.294-497.069 98.84-537c5.779-4.754 12.11-8.788 18.802-12.203"/><path fill="#3d3d6a" stroke="#3d3d6a" d="M116.423-552.496l10.549-.991-7.628 7.353-2.92-6.362z"/></g><g class="node"><ellipse fill="none" stroke="#2a7b9a" cx="249.351" cy="-618" rx="106.535" ry="18"/><text text-anchor="middle" x="249.351" y="-613.8" font-family="Times,serif" font-size="14">Algorithms.Dijkstra.API</text></g><g class="edge"><path fill="none" stroke="#3d3d6a" d="M34.28-381.942C42.382-430.455 66.973-562.494 98.84-591c10.349-9.258 22.752-15.86 35.938-20.505"/><path fill="#3d3d6a" stroke="#3d3d6a" d="M133.91-614.9l10.589.35-8.496 6.33-2.093-6.68z"/></g><g class="node"><ellipse fill="none" stroke="#2a7b9a" cx="249.351" cy="-256" rx="101.287" ry="18"/><text text-anchor="middle" x="249.351" y="-251.8" font-family="Times,serif" font-size="14">GraphFile.Json.Encode</text></g><g class="edge"><path fill="none" stroke="#3d3d6a" d="M333.42-266.091c21.996-3.985 45.425-9.454 66.442-16.909 50.528-17.922 103.912-49.901 136.733-71.283"/><path fill="#3d3d6a" stroke="#3d3d6a" d="M535.012-357.431l10.275-2.58-6.423 8.425-3.852-5.845z"/></g><g class="node"><ellipse fill="none" stroke="#2a7b9a" cx="568.405" cy="-256" rx="86.243" ry="18"/><text text-anchor="middle" x="568.405" y="-251.8" font-family="Times,serif" font-size="14">Graph.Json.Encode</text></g><g class="edge"><path fill="none" stroke="#3d3d6a" d="M350.74-256h121.169"/><path fill="#3d3d6a" stroke="#3d3d6a" d="M472.032-259.5l10 3.5-10 3.5v-7z"/></g><g class="node"><ellipse fill="none" stroke="#2a7b9a" cx="249.351" cy="-202" rx="101.848" ry="18"/><text text-anchor="middle" x="249.351" y="-197.8" font-family="Times,serif" font-size="14">GraphFile.Json.Decode</text></g><g class="edge"><path fill="none" stroke="#3d3d6a" d="M346.066-207.556c18.91-4.247 37.81-10.967 53.796-21.444 24.125-15.811 15.849-33.362 36-54 28.708-29.4 67.847-55.548 96.145-72.571"/><path fill="#3d3d6a" stroke="#3d3d6a" d="M530.399-358.687l10.387-2.084-6.82 8.108-3.567-6.024z"/></g><g class="node"><ellipse fill="none" stroke="#2a7b9a" cx="568.405" cy="-202" rx="86.803" ry="18"/><text text-anchor="middle" x="568.405" y="-197.8" font-family="Times,serif" font-size="14">Graph.Json.Decode</text></g><g class="edge"><path fill="none" stroke="#3d3d6a" d="M351.179-202h120.488"/><path fill="#3d3d6a" stroke="#3d3d6a" d="M471.738-205.5l10 3.5-10 3.5v-7z"/></g><g class="edge"><path fill="none" stroke="#3d3d6a" d="M364.537-368.332l143.614-5.402"/><path fill="#3d3d6a" stroke="#3d3d6a" d="M508.253-377.24l10.125 3.122-9.862 3.873-.263-6.995z"/></g><g class="edge"><path fill="none" stroke="#3d3d6a" d="M328.778-323.484c22.98-4.107 48.07-8.792 71.084-13.516 39.46-8.1 83.837-18.418 117.147-26.406"/><path fill="#3d3d6a" stroke="#3d3d6a" d="M516.432-366.867l10.541 1.062-8.902 5.744-1.64-6.806z"/></g><g class="node"><ellipse fill="none" stroke="#2a7b9a" cx="816.886" cy="-434" rx="64.872" ry="18"/><text text-anchor="middle" x="816.886" y="-429.8" font-family="Times,serif" font-size="14">Graph.Layout</text></g><g class="edge"><path fill="none" stroke="#3d3d6a" d="M610.557-385.839l146.273-34.143"/><path fill="#3d3d6a" stroke="#3d3d6a" d="M756.274-423.446l10.534 1.135-8.942 5.682-1.592-6.817z"/></g><g class="node"><ellipse fill="none" stroke="#2a7b9a" cx="816.886" cy="-342" rx="79.876" ry="18"/><text text-anchor="middle" x="816.886" y="-337.8" font-family="Times,serif" font-size="14">Graph.Generators</text></g><g class="edge"><path fill="none" stroke="#3d3d6a" d="M615.435-369.565l122.922 16.82"/><path fill="#3d3d6a" stroke="#3d3d6a" d="M739.021-356.187l9.433 4.823-10.382 2.112.949-6.935z"/></g><g class="edge"><path fill="none" stroke="#3d3d6a" d="M603.513-363.045c34.039 12.503 87.173 31.862 133.435 48.045a3441.6 3441.6 0 0029.884 10.278"/><path fill="#3d3d6a" stroke="#3d3d6a" d="M768.22-307.947l8.352 6.519-10.594.112 2.242-6.632z"/></g><g class="node"><ellipse fill="none" stroke="#2a7b9a" cx="1038.257" cy="-434" rx="58.487" ry="18"/><text text-anchor="middle" x="1038.257" y="-429.8" font-family="Times,serif" font-size="14">Graph.Extra</text></g><g class="edge"><path fill="none" stroke="#3d3d6a" d="M617.818-379.202c64.417-4.508 180.491-13.777 279.006-27.798 27.529-3.918 57.837-9.529 83.312-14.621"/><path fill="#3d3d6a" stroke="#3d3d6a" d="M979.512-425.066l10.495 1.449-9.108 5.412-1.387-6.861z"/></g><g class="edge"><path fill="none" stroke="#3d3d6a" d="M882.108-434h87.365"/><path fill="#3d3d6a" stroke="#3d3d6a" d="M969.533-437.5l10 3.5-10 3.5v-7z"/></g><g class="node"><ellipse fill="none" stroke="#2a7b9a" cx="1280.273" cy="-342" rx="100.665" ry="18"/><text text-anchor="middle" x="1280.273" y="-337.8" font-family="Times,serif" font-size="14">Graph.Force.QuadTree</text></g><g class="node"><ellipse fill="none" stroke="#2a7b9a" cx="1038.257" cy="-342" rx="105.366" ry="18"/><text text-anchor="middle" x="1038.257" y="-337.8" font-family="Times,serif" font-size="14">Graph.Force.ManyBody</text></g><g class="edge"><path fill="none" stroke="#3d3d6a" d="M1143.705-342h25.406"/><path fill="#3d3d6a" stroke="#3d3d6a" d="M1169.386-345.5l10 3.5-10 3.5v-7z"/></g><g class="node"><ellipse fill="none" stroke="#2a7b9a" cx="1038.257" cy="-288" rx="80.44" ry="18"/><text text-anchor="middle" x="1038.257" y="-283.8" font-family="Times,serif" font-size="14">Graph.Force.Link</text></g><g class="node"><ellipse fill="none" stroke="#2a7b9a" cx="1038.257" cy="-234" rx="91.454" ry="18"/><text text-anchor="middle" x="1038.257" y="-229.8" font-family="Times,serif" font-size="14">Graph.Force.Gravity</text></g><g class="edge"><path fill="none" stroke="#3d3d6a" d="M863.293-299.32l104.394-25.465"/><path fill="#3d3d6a" stroke="#3d3d6a" d="M967.064-328.236l10.545 1.03-8.886 5.77-1.659-6.8z"/></g><g class="edge"><path fill="none" stroke="#3d3d6a" d="M876.5-288h71.061"/><path fill="#3d3d6a" stroke="#3d3d6a" d="M947.736-291.5l10 3.5-10 3.5v-7z"/></g><g class="edge"><path fill="none" stroke="#3d3d6a" d="M863.293-276.68l107.117 26.13"/><path fill="#3d3d6a" stroke="#3d3d6a" d="M971.594-253.864l8.886 5.77-10.545 1.03 1.66-6.8z"/></g><g class="edge"><path fill="none" stroke="#3d3d6a" d="M865.099-298.625c11.133-3.932 22.426-9.243 31.725-16.375 22.888-17.554 15.245-33.97 36-54 18.735-18.08 43.334-33.599 64.058-44.934"/><path fill="#3d3d6a" stroke="#3d3d6a" d="M995.326-417.07l10.47-1.616-7.177 7.793-3.293-6.177z"/></g><g class="edge"><path fill="none" stroke="#3d3d6a" d="M312.916-443.484c26.916 5.558 58.557 12.432 86.946 19.484 40.808 10.136 86.676 23.318 120.248 33.302"/><path fill="#3d3d6a" stroke="#3d3d6a" d="M521.535-393.925l8.58 6.216-10.584.491 2.004-6.707z"/></g><g class="edge"><path fill="none" stroke="#3d3d6a" d="M335.856-452.647l406.446 15.756"/><path fill="#3d3d6a" stroke="#3d3d6a" d="M742.63-440.381l9.857 3.885-10.128 3.11.272-6.995z"/></g><g class="edge"><path fill="none" stroke="#3d3d6a" d="M279.08-20.143l180.79-13.033"/><path fill="#3d3d6a" stroke="#3d3d6a" d="M459.775-36.678l10.226 2.772-9.722 4.21-.504-6.982z"/></g><g class="edge"><path fill="none" stroke="#3d3d6a" d="M369.905-553.036c10.709 4.06 20.904 9.302 29.957 16.036 28.389 21.115 12.624 44.442 36 71 26.45 30.05 65.053 54.757 93.783 70.632"/><path fill="#3d3d6a" stroke="#3d3d6a" d="M531.466-398.362l7.133 7.834-10.462-1.676 3.329-6.158z"/></g><g class="edge"><path fill="none" stroke="#3d3d6a" d="M362.19-551.936c13.132 3.759 25.992 8.631 37.672 14.936 20.473 11.05 15.025 27.937 36 38 92.67 44.46 359.12 24.121 460.962 38 27.661 3.77 58.103 9.388 83.637 14.526"/><path fill="#3d3d6a" stroke="#3d3d6a" d="M981.251-449.885l9.1 5.426-10.497 1.433 1.397-6.86z"/></g><g class="node"><ellipse fill="none" stroke="#2a7b9a" cx="568.405" cy="-526" rx="132.586" ry="18"/><text text-anchor="middle" x="568.405" y="-521.8" font-family="Times,serif" font-size="14">Algorithms.TopologicalSorting</text></g><g class="edge"><path fill="none" stroke="#3d3d6a" d="M356.035-551.294l102.353 12.19"/><path fill="#3d3d6a" stroke="#3d3d6a" d="M459.048-542.55l9.515 4.659-10.343 2.292.827-6.95z"/></g><g class="node"><ellipse fill="none" stroke="#2a7b9a" cx="816.886" cy="-591" rx="51.043" ry="18"/><text text-anchor="middle" x="816.886" y="-586.8" font-family="Times,serif" font-size="14">Algorithm</text></g><g class="edge"><path fill="none" stroke="#3d3d6a" d="M389.276-570.657l366.33-17.428"/><path fill="#3d3d6a" stroke="#3d3d6a" d="M755.689-591.592l10.155 3.02-9.823 3.972-.332-6.992z"/></g><g class="edge"><path fill="none" stroke="#3d3d6a" d="M635.286-541.59c21.057-5.058 44.371-10.812 65.663-16.41 22.002-5.785 46.225-12.608 66.815-18.543"/><path fill="#3d3d6a" stroke="#3d3d6a" d="M766.975-579.959l10.579.581-8.633 6.143-1.946-6.724z"/></g><g class="edge"><path fill="none" stroke="#3d3d6a" d="M353.023-613.733c16.988 4.54 33.402 11.696 46.84 22.733 33.929 27.87 11.285 55.708 36 92 27.903 40.974 71.814 78.2 101.368 100.711"/><path fill="#3d3d6a" stroke="#3d3d6a" d="M539.633-400.862l5.9 8.8-10.1-3.2 4.2-5.6z"/></g><g class="edge"><path fill="none" stroke="#3d3d6a" d="M286.237-635.005c36.939-16.025 95.868-38.896 149.625-47.995 116.164-19.662 148.78-18.794 265.086 0 90.55 14.632 121.114 11.86 195.876 65 59.59 42.356 105.761 117.11 127.598 157.054"/><path fill="#3d3d6a" stroke="#3d3d6a" d="M1027.554-462.511l1.645 10.466-7.813-7.156 6.168-3.31z"/></g><g class="node"><ellipse fill="none" stroke="#2a7b9a" cx="568.405" cy="-656" rx="88.598" ry="18"/><text text-anchor="middle" x="568.405" y="-651.8" font-family="Times,serif" font-size="14">Algorithms.Dijkstra</text></g><g class="edge"><path fill="none" stroke="#3d3d6a" d="M336.534-628.384l145.331-17.309"/><path fill="#3d3d6a" stroke="#3d3d6a" d="M481.577-649.183l10.344 2.293-9.516 4.658-.828-6.951z"/></g><g class="edge"><path fill="none" stroke="#3d3d6a" d="M352.127-613.11l403.494 19.195"/><path fill="#3d3d6a" stroke="#3d3d6a" d="M755.992-597.401l9.822 3.971-10.155 3.021.333-6.992z"/></g><g class="edge"><path fill="none" stroke="#3d3d6a" d="M626.928-642.409c23.111 5.508 49.867 12.059 74.02 18.409 22.003 5.785 46.226 12.608 66.816 18.543"/><path fill="#3d3d6a" stroke="#3d3d6a" d="M768.921-608.765l8.633 6.143-10.58.58 1.947-6.723z"/></g></g></svg>